<svg fill="none" height="28" viewBox="0 0 27 28" width="27" xmlns="http://www.w3.org/2000/svg" xmlns:xlink="http://www.w3.org/1999/xlink"><mask id="a" height="28" maskUnits="userSpaceOnUse" width="27" x="0" y="0"><path d="m0 .5h27v27h-27z" fill="#d9d9d9"/></mask><g mask="url(#a)"><path d="m6.75 24.125c-.84375 0-1.67812-.2062-2.50313-.6187-.82499-.4125-1.49062-.9563-1.99687-1.6313.4875 0 .98438-.1922 1.49063-.5765.50625-.3844.75937-.9422.75937-1.6735 0-.9375.32812-1.7344.98438-2.3906.65624-.6563 1.45312-.9844 2.39062-.9844s1.73438.3281 2.3906.9844c.6563.6562.9844 1.4531.9844 2.3906 0 1.2375-.4406 2.2969-1.32187 3.1781-.88125.8813-1.94063 1.3219-3.17813 1.3219zm0-2.25c.61875 0 1.14844-.2203 1.58906-.6609.44063-.4406.66094-.9703.66094-1.5891 0-.3187-.10781-.5859-.32344-.8015-.21562-.2157-.48281-.3235-.80156-.3235s-.58594.1078-.80156.3235c-.21563.2156-.32344.4828-.32344.8015 0 .4313-.05156.825-.15469 1.1813-.10312.3562-.23906.6937-.40781 1.0125.09375.0375.1875.0562.28125.0562zm6.4688-4.5-3.0938-3.0937 10.0688-10.06878c.2062-.20625.464-.31406.7734-.32344.3094-.00937.5766.09844.8016.32344l1.5187 1.51875c.225.225.3375.4875.3375.7875s-.1125.5625-.3375.7875z" fill="#4a86ff"/></g></svg>