<svg width="30" height="30" viewBox="0 0 30 30" fill="none" xmlns="http://www.w3.org/2000/svg">
<path d="M15 17.4803L3.01181 29.4685C2.69685 29.7835 2.2937 29.9504 1.80236 29.9693C1.30945 29.9898 0.885826 29.8228 0.531496 29.4685C0.177165 29.1142 0 28.7008 0 28.2283C0 27.7559 0.177165 27.3425 0.531496 26.9882L12.5197 15L0.531496 3.01181C0.216535 2.69685 0.0496063 2.29291 0.0307087 1.8C0.0102362 1.30866 0.177165 0.885826 0.531496 0.531496C0.885826 0.177165 1.29921 0 1.77165 0C2.24409 0 2.65748 0.177165 3.01181 0.531496L15 12.5197L26.9882 0.531496C27.3032 0.216535 27.7071 0.0488191 28.2 0.0283467C28.6913 0.00944902 29.1142 0.177165 29.4685 0.531496C29.8228 0.885826 30 1.29921 30 1.77165C30 2.24409 29.8228 2.65748 29.4685 3.01181L17.4803 15L29.4685 26.9882C29.7835 27.3032 29.9504 27.7063 29.9693 28.1976C29.9898 28.6905 29.8228 29.1142 29.4685 29.4685C29.1142 29.8228 28.7008 30 28.2283 30C27.7559 30 27.3425 29.8228 26.9882 29.4685L15 17.4803Z" fill="#888D98"/>
</svg>
