<svg width="168" height="203" viewBox="0 0 168 203" fill="none" xmlns="http://www.w3.org/2000/svg">
<path d="M87.2168 99.1086C87.2168 99.1086 30.1136 106.246 30.7094 74.4805C31.4103 37.0063 71.9623 7.9943 103.833 0C103.833 0 68.0523 6.58064 43.8062 22.7367C19.5601 38.8928 0 61.4029 0 80.4503C0 99.4977 19.7603 108.728 28.7519 110.265C37.7434 111.802 56.5175 112.767 87.2168 99.1086Z" fill="white"/>
<path d="M5.3515 203C5.3515 203 54.8249 185.48 94.1203 150.478C133.416 115.476 140.45 61.5014 59.576 76.9827C59.576 76.9827 92.6584 63.4815 116.549 63.4815C140.44 63.4815 168 67.9146 168 95.1632C168.02 132.199 96.6235 199.114 5.3515 203Z" fill="white"/>
<path d="M150.343 14.8312C155.615 23.8155 151.454 35.8883 141.051 41.7941C130.648 47.6999 117.946 45.2125 112.675 36.2281C107.403 27.2438 111.753 15.4912 121.962 9.26523C130.843 3.84703 145.071 5.84684 150.343 14.8312Z" fill="white"/>
</svg>
