<svg fill="none" height="29" viewBox="0 0 24 29" width="24" xmlns="http://www.w3.org/2000/svg"><g fill="#333"><path d="m12.458 14.1584s-8.15658 1.0196-8.07148-3.5183c.10012-5.35349 5.89258-9.49806 10.44498-10.6401 0 0-5.11093.940092-8.57424 3.2481-3.4633 2.30801-6.25726 5.52374-6.25726 8.2448 0 2.7211 2.82256 4.0397 4.10691 4.2593 1.28435.2195 3.96603.3574 8.35109-1.5938z"/><path d="m.764465 29s7.066775-2.5029 12.679735-7.5031c5.6129-5.0003 6.6177-12.71099-4.93432-10.4994 0 0 4.72552-1.92871 8.13802-1.92871s7.3492.63329 7.3492 4.52591c.0029 5.2909-10.1954 14.8501-23.232635 15.4053z"/><path d="m21.4749 2.11874c.7531 1.28348.1588 3.00815-1.3272 3.85184s-3.3003.48834-4.0533-.79514-.1316-2.96241 1.3266-3.85184c1.2686-.774028 3.3009-.488341 4.0539.79514z"/></g></svg>