<svg width="24" height="29" viewBox="0 0 24 29" fill="none" xmlns="http://www.w3.org/2000/svg">
<path d="M12.458 14.1584C12.458 14.1584 4.30142 15.178 4.38652 10.6401C4.48664 5.28661 10.2791 1.14204 14.8315 0C14.8315 0 9.72057 0.940092 6.25726 3.2481C2.79396 5.55611 0 8.77184 0 11.4929C0 14.214 2.82256 15.5326 4.10691 15.7522C5.39126 15.9717 8.07294 16.1096 12.458 14.1584Z" fill="#333333"/>
<path d="M0.764465 29C0.764465 29 7.83124 26.4971 13.4442 21.4969C19.0571 16.4966 20.0619 8.78591 8.50988 10.9975C8.50988 10.9975 13.2354 9.06879 16.6479 9.06879C20.0604 9.06879 23.9971 9.70208 23.9971 13.5947C24 18.8856 13.8017 28.4448 0.764465 29Z" fill="#333333"/>
<path d="M21.4749 2.11874C22.228 3.40222 21.6337 5.12689 20.1477 5.97058C18.6617 6.81427 16.8474 6.45892 16.0944 5.17544C15.3414 3.89196 15.9628 2.21303 17.421 1.3236C18.6896 0.549572 20.7219 0.835259 21.4749 2.11874Z" fill="#333333"/>
</svg>
