<svg fill="none" height="29" viewBox="0 0 24 29" width="24" xmlns="http://www.w3.org/2000/svg"><g fill="#fff"><path d="m12.458 14.1584s-8.15658 1.0196-8.07148-3.5183c.10012-5.35349 5.89258-9.49806 10.44498-10.6401 0 0-5.11093.940092-8.57424 3.2481-3.4633 2.30801-6.25726 5.52374-6.25726 8.2448 0 2.7211 2.82256 4.0397 4.10691 4.2593 1.28435.2195 3.96603.3574 8.35109-1.5938z"/><path d="m.764404 29.0001s7.066776-2.503 12.679696-7.5032c5.613-5.0002 6.6177-12.71093-4.93428-10.4993 0 0 4.72548-1.92875 8.13798-1.92875 3.4126 0 7.3493.63329 7.3493 4.52595.0028 5.2908-10.1954 14.8501-23.232696 15.4053z"/><path d="m21.4749 2.11871c.7531 1.28348.1588 3.00815-1.3272 3.85184s-3.3003.48834-4.0533-.79514-.1316-2.96241 1.3266-3.85184c1.2686-.774029 3.3009-.488342 4.0539.79514z"/></g></svg>