<svg width="24" height="29" viewBox="0 0 24 29" fill="none" xmlns="http://www.w3.org/2000/svg">
<path d="M12.458 14.1584C12.458 14.1584 4.30142 15.178 4.38652 10.6401C4.48664 5.28661 10.2791 1.14204 14.8315 0C14.8315 0 9.72057 0.940092 6.25726 3.2481C2.79396 5.55611 0 8.77184 0 11.4929C0 14.214 2.82256 15.5326 4.10691 15.7522C5.39126 15.9717 8.07294 16.1096 12.458 14.1584Z" fill="white"/>
<path d="M0.764404 29.0001C0.764404 29.0001 7.83118 26.4971 13.4441 21.4969C19.0571 16.4967 20.0618 8.78597 8.50982 10.9976C8.50982 10.9976 13.2353 9.06885 16.6478 9.06885C20.0604 9.06885 23.9971 9.70214 23.9971 13.5948C23.9999 18.8856 13.8017 28.4449 0.764404 29.0001Z" fill="white"/>
<path d="M21.4749 2.11871C22.228 3.40219 21.6337 5.12686 20.1477 5.97055C18.6617 6.81424 16.8474 6.45889 16.0944 5.17541C15.3414 3.89193 15.9628 2.213 17.421 1.32357C18.6896 0.549541 20.7219 0.835228 21.4749 2.11871Z" fill="white"/>
</svg>
